<!-- icon666.com - MILLIONS vector ICONS FREE --><svg id="bold" viewBox="0 0 24 24" xmlns="http://www.w3.org/2000/svg"><path fill='white' d="m19 24h-14c-1.654 0-3-1.346-3-3v-11.333c0-.645.213-1.284.601-1.8l2.599-3.467c.189-.252.486-.4.8-.4h11.989c.198.007.408.057.586.182.018.013.035.026.053.04.001 0 .001.001.001.001.072.058.134.124.186.196l2.585 3.448c.387.516.6 1.155.6 1.8v11.333c0 1.654-1.346 3-3 3zm-3.171-2h3.171c.552 0 1-.449 1-1v-11.333c0-.214-.071-.427-.2-.6l-1.8-2.4-1.8 2.4c-.129.172-.2.385-.2.6v11.333c0 .351-.061.687-.171 1zm-9.329-16-2.3 3.067c-.129.172-.2.385-.2.6v11.333c0 .551.448 1 1 1h8c.552 0 1-.449 1-1v-11.333c0-.645.213-1.284.601-1.8l1.399-1.867z"></path><path fill='white' d="m18.25 5.25h-12.5c-.414 0-.75-.336-.75-.75v-2.75c0-.965.785-1.75 1.75-1.75h10.5c.965 0 1.75.785 1.75 1.75v2.75c0 .414-.336.75-.75.75z"></path><path fill='white' d="m10.25 14h-2.5c-.965 0-1.75-.785-1.75-1.75v-3.048c0-.623.214-1.233.604-1.719l2.561-3.201c.142-.178.357-.282.585-.282h4.5c.288 0 .551.165.676.425s.09.568-.09.793l-2.562 3.202c-.176.222-.274.498-.274.782v3.048c0 .965-.785 1.75-1.75 1.75z"></path><path d="m18 12c-.553 0-1-.448-1-1v-5.75c0-.552.447-1 1-1s1 .448 1 1v5.75c0 .552-.447 1-1 1z"></path></svg>