<!-- sample rectangle -->
<svg width="65" height="65" xmlns="http://www.w3.org/2000/svg">
  <circle fill="#fff" r="5" cx="5" cy="5" />
  <circle fill="#fff" r="5" cx="19" cy="5" />
  <circle fill="#fff" r="5" cx="32" cy="5" />
  <circle fill="#fff" r="5" cx="45" cy="5" />
  <circle fill="#fff" r="5" cx="58" cy="5" />
  <circle fill="#fff" r="5" cx="5" cy="19" />
  <circle fill="#fff" r="5" cx="19" cy="19" />
  <circle fill="#fff" r="5" cx="32" cy="19" />
  <circle fill="#fff" r="5" cx="45" cy="19" />
  <circle fill="#fff" r="5" cx="58" cy="19" />
  <circle fill="#fff" r="5" cx="5"  cy="32" />
  <circle fill="#fff" r="5" cx="19" cy="32" />
  <circle fill="#fff" r="5" cx="32" cy="32" />
  <circle fill="#fff" r="5" cx="45" cy="32" />
  <circle fill="#fff" r="5" cx="58" cy="32" />
  <circle fill="#fff" r="5" cx="5"  cy="45" />
  <circle fill="#fff" r="5" cx="19" cy="45" />
  <circle fill="#fff" r="5" cx="32" cy="45" />
  <circle fill="#fff" r="5" cx="45" cy="45" />
  <circle fill="#fff" r="5" cx="58" cy="45" />
  <circle fill="#fff" r="5" cx="5"  cy="58" />
  <circle fill="#fff" r="5" cx="19" cy="58" />
  <circle fill="#fff" r="5" cx="32" cy="58" />
  <circle fill="#fff" r="5" cx="45" cy="58" />
  <circle fill="#fff" r="5" cx="58" cy="58" />
</svg>